<svg viewBox="0 0 240 267" fill="none" xmlns="http://www.w3.org/2000/svg">
  <path
    fill-rule="evenodd"
    clip-rule="evenodd"
    d="M118 0C52.8304 0 0 52.8304 0 118V267L40 227L80 267L120 227L160 267L200 227L240 267V118C240 52.8304 187.17 0 122 0H118ZM80 133C94.9117 133 107 120.912 107 106C107 91.0883 94.9117 79 80 79C65.0883 79 53 91.0883 53 106C53 120.912 65.0883 133 80 133ZM188 106C188 120.912 175.912 133 161 133C146.088 133 134 120.912 134 106C134 91.0883 146.088 79 161 79C175.912 79 188 91.0883 188 106Z"
    fill="#fff"
  />
</svg>
